<mxfile host="app.diagrams.net" modified="2023-12-10T23:20:17.338Z" agent="Mozilla/5.0 (Windows NT 10.0; Win64; x64) AppleWebKit/537.36 (KHTML, like Gecko) Chrome/120.0.0.0 Safari/537.36 Edg/120.0.0.0" etag="YUJBzb9k2Y2vaLp1yAYf" version="22.1.7" type="device">
  <diagram name="1 oldal" id="RDIn_xjUEiX0ZUCHywwR">
    <mxGraphModel dx="1386" dy="1920" grid="1" gridSize="10" guides="1" tooltips="1" connect="1" arrows="1" fold="1" page="1" pageScale="1" pageWidth="827" pageHeight="1169" math="0" shadow="0">
      <root>
        <mxCell id="0" />
        <mxCell id="1" parent="0" />
        <mxCell id="3hz_wcmM0hAR168FM_uA-2" value="Futár" style="whiteSpace=wrap;html=1;align=center;" parent="1" vertex="1">
          <mxGeometry x="440" y="-280" width="120" height="40" as="geometry" />
        </mxCell>
        <mxCell id="3hz_wcmM0hAR168FM_uA-3" value="Rendelés" style="whiteSpace=wrap;html=1;align=center;" parent="1" vertex="1">
          <mxGeometry x="1080" y="200" width="120" height="40" as="geometry" />
        </mxCell>
        <mxCell id="3hz_wcmM0hAR168FM_uA-4" value="Étterem" style="whiteSpace=wrap;html=1;align=center;" parent="1" vertex="1">
          <mxGeometry x="440" y="200" width="120" height="40" as="geometry" />
        </mxCell>
        <mxCell id="3hz_wcmM0hAR168FM_uA-5" value="Vevő" style="whiteSpace=wrap;html=1;align=center;" parent="1" vertex="1">
          <mxGeometry x="1720" y="200" width="120" height="40" as="geometry" />
        </mxCell>
        <mxCell id="3hz_wcmM0hAR168FM_uA-6" value="Bankkártya" style="whiteSpace=wrap;html=1;align=center;" parent="1" vertex="1">
          <mxGeometry x="2360" y="200" width="120" height="40" as="geometry" />
        </mxCell>
        <mxCell id="3hz_wcmM0hAR168FM_uA-7" value="Termék" style="whiteSpace=wrap;html=1;align=center;" parent="1" vertex="1">
          <mxGeometry x="1080" y="-280" width="120" height="40" as="geometry" />
        </mxCell>
        <mxCell id="3hz_wcmM0hAR168FM_uA-8" value="Dolgozik" style="shape=rhombus;perimeter=rhombusPerimeter;whiteSpace=wrap;html=1;align=center;" parent="1" vertex="1">
          <mxGeometry x="440" y="-50" width="120" height="60" as="geometry" />
        </mxCell>
        <mxCell id="3hz_wcmM0hAR168FM_uA-9" value="RÉ" style="shape=rhombus;perimeter=rhombusPerimeter;whiteSpace=wrap;html=1;align=center;" parent="1" vertex="1">
          <mxGeometry x="760" y="190" width="120" height="60" as="geometry" />
        </mxCell>
        <mxCell id="3hz_wcmM0hAR168FM_uA-10" value="RT" style="shape=rhombus;perimeter=rhombusPerimeter;whiteSpace=wrap;html=1;align=center;" parent="1" vertex="1">
          <mxGeometry x="1080" y="-50" width="120" height="60" as="geometry" />
        </mxCell>
        <mxCell id="3hz_wcmM0hAR168FM_uA-11" value="RV" style="shape=rhombus;perimeter=rhombusPerimeter;whiteSpace=wrap;html=1;align=center;" parent="1" vertex="1">
          <mxGeometry x="1400" y="190" width="120" height="60" as="geometry" />
        </mxCell>
        <mxCell id="3hz_wcmM0hAR168FM_uA-12" value="Birtokol" style="shape=rhombus;perimeter=rhombusPerimeter;whiteSpace=wrap;html=1;align=center;" parent="1" vertex="1">
          <mxGeometry x="2040" y="190" width="120" height="60" as="geometry" />
        </mxCell>
        <mxCell id="3hz_wcmM0hAR168FM_uA-13" value="" style="endArrow=classic;html=1;rounded=0;exitX=0.5;exitY=0;exitDx=0;exitDy=0;entryX=0.5;entryY=1;entryDx=0;entryDy=0;" parent="1" source="3hz_wcmM0hAR168FM_uA-8" target="3hz_wcmM0hAR168FM_uA-2" edge="1">
          <mxGeometry width="50" height="50" relative="1" as="geometry">
            <mxPoint x="240" y="-40" as="sourcePoint" />
            <mxPoint x="290" y="-90" as="targetPoint" />
          </mxGeometry>
        </mxCell>
        <mxCell id="3hz_wcmM0hAR168FM_uA-14" value="" style="endArrow=classic;html=1;rounded=0;exitX=0.5;exitY=0;exitDx=0;exitDy=0;" parent="1" source="3hz_wcmM0hAR168FM_uA-8" edge="1">
          <mxGeometry width="50" height="50" relative="1" as="geometry">
            <mxPoint x="240" y="-40" as="sourcePoint" />
            <mxPoint x="500" y="-220" as="targetPoint" />
          </mxGeometry>
        </mxCell>
        <mxCell id="3hz_wcmM0hAR168FM_uA-15" value="" style="endArrow=classic;html=1;rounded=0;exitX=0.5;exitY=1;exitDx=0;exitDy=0;entryX=0.5;entryY=0;entryDx=0;entryDy=0;" parent="1" source="3hz_wcmM0hAR168FM_uA-8" target="3hz_wcmM0hAR168FM_uA-4" edge="1">
          <mxGeometry width="50" height="50" relative="1" as="geometry">
            <mxPoint x="480" y="-40" as="sourcePoint" />
            <mxPoint x="530" y="-90" as="targetPoint" />
          </mxGeometry>
        </mxCell>
        <mxCell id="3hz_wcmM0hAR168FM_uA-16" value="" style="endArrow=classic;html=1;rounded=0;exitX=0;exitY=0.5;exitDx=0;exitDy=0;entryX=1;entryY=0.5;entryDx=0;entryDy=0;" parent="1" source="3hz_wcmM0hAR168FM_uA-9" target="3hz_wcmM0hAR168FM_uA-4" edge="1">
          <mxGeometry width="50" height="50" relative="1" as="geometry">
            <mxPoint x="990" y="-40" as="sourcePoint" />
            <mxPoint x="1040" y="-90" as="targetPoint" />
          </mxGeometry>
        </mxCell>
        <mxCell id="3hz_wcmM0hAR168FM_uA-17" value="" style="endArrow=classic;html=1;rounded=0;exitX=1;exitY=0.5;exitDx=0;exitDy=0;entryX=0;entryY=0.5;entryDx=0;entryDy=0;" parent="1" source="3hz_wcmM0hAR168FM_uA-9" target="3hz_wcmM0hAR168FM_uA-3" edge="1">
          <mxGeometry width="50" height="50" relative="1" as="geometry">
            <mxPoint x="990" y="-40" as="sourcePoint" />
            <mxPoint x="1040" y="-90" as="targetPoint" />
          </mxGeometry>
        </mxCell>
        <mxCell id="3hz_wcmM0hAR168FM_uA-18" value="" style="endArrow=classic;html=1;rounded=0;exitX=1;exitY=0.5;exitDx=0;exitDy=0;" parent="1" source="3hz_wcmM0hAR168FM_uA-9" edge="1">
          <mxGeometry width="50" height="50" relative="1" as="geometry">
            <mxPoint x="990" y="-40" as="sourcePoint" />
            <mxPoint x="1070" y="220" as="targetPoint" />
          </mxGeometry>
        </mxCell>
        <mxCell id="3hz_wcmM0hAR168FM_uA-19" value="" style="endArrow=classic;html=1;rounded=0;exitX=0.5;exitY=1;exitDx=0;exitDy=0;entryX=0.5;entryY=0;entryDx=0;entryDy=0;" parent="1" source="3hz_wcmM0hAR168FM_uA-10" target="3hz_wcmM0hAR168FM_uA-3" edge="1">
          <mxGeometry width="50" height="50" relative="1" as="geometry">
            <mxPoint x="1270" y="-40" as="sourcePoint" />
            <mxPoint x="1320" y="-90" as="targetPoint" />
          </mxGeometry>
        </mxCell>
        <mxCell id="3hz_wcmM0hAR168FM_uA-20" value="" style="endArrow=classic;html=1;rounded=0;exitX=0.5;exitY=1;exitDx=0;exitDy=0;" parent="1" source="3hz_wcmM0hAR168FM_uA-10" edge="1">
          <mxGeometry width="50" height="50" relative="1" as="geometry">
            <mxPoint x="1270" y="-40" as="sourcePoint" />
            <mxPoint x="1140" y="190" as="targetPoint" />
          </mxGeometry>
        </mxCell>
        <mxCell id="3hz_wcmM0hAR168FM_uA-21" value="" style="endArrow=classic;html=1;rounded=0;exitX=0.5;exitY=0;exitDx=0;exitDy=0;entryX=0.5;entryY=1;entryDx=0;entryDy=0;" parent="1" source="3hz_wcmM0hAR168FM_uA-10" target="3hz_wcmM0hAR168FM_uA-7" edge="1">
          <mxGeometry width="50" height="50" relative="1" as="geometry">
            <mxPoint x="1270" y="-40" as="sourcePoint" />
            <mxPoint x="1320" y="-90" as="targetPoint" />
          </mxGeometry>
        </mxCell>
        <mxCell id="3hz_wcmM0hAR168FM_uA-22" value="" style="endArrow=classic;html=1;rounded=0;exitX=0.5;exitY=0;exitDx=0;exitDy=0;" parent="1" source="3hz_wcmM0hAR168FM_uA-10" edge="1">
          <mxGeometry width="50" height="50" relative="1" as="geometry">
            <mxPoint x="1270" y="-40" as="sourcePoint" />
            <mxPoint x="1140" y="-230" as="targetPoint" />
          </mxGeometry>
        </mxCell>
        <mxCell id="3hz_wcmM0hAR168FM_uA-23" value="" style="endArrow=classic;html=1;rounded=0;exitX=0;exitY=0.5;exitDx=0;exitDy=0;entryX=1;entryY=0.5;entryDx=0;entryDy=0;" parent="1" source="3hz_wcmM0hAR168FM_uA-11" target="3hz_wcmM0hAR168FM_uA-3" edge="1">
          <mxGeometry width="50" height="50" relative="1" as="geometry">
            <mxPoint x="1520" y="-40" as="sourcePoint" />
            <mxPoint x="1570" y="-90" as="targetPoint" />
          </mxGeometry>
        </mxCell>
        <mxCell id="3hz_wcmM0hAR168FM_uA-24" value="" style="endArrow=classic;html=1;rounded=0;exitX=1;exitY=0.5;exitDx=0;exitDy=0;entryX=0;entryY=0.5;entryDx=0;entryDy=0;" parent="1" source="3hz_wcmM0hAR168FM_uA-11" target="3hz_wcmM0hAR168FM_uA-5" edge="1">
          <mxGeometry width="50" height="50" relative="1" as="geometry">
            <mxPoint x="1520" y="-40" as="sourcePoint" />
            <mxPoint x="1570" y="-90" as="targetPoint" />
          </mxGeometry>
        </mxCell>
        <mxCell id="3hz_wcmM0hAR168FM_uA-25" value="" style="endArrow=classic;html=1;rounded=0;exitX=0;exitY=0.5;exitDx=0;exitDy=0;entryX=1;entryY=0.5;entryDx=0;entryDy=0;" parent="1" source="3hz_wcmM0hAR168FM_uA-12" target="3hz_wcmM0hAR168FM_uA-5" edge="1">
          <mxGeometry width="50" height="50" relative="1" as="geometry">
            <mxPoint x="2240" y="-40" as="sourcePoint" />
            <mxPoint x="2290" y="-90" as="targetPoint" />
          </mxGeometry>
        </mxCell>
        <mxCell id="3hz_wcmM0hAR168FM_uA-26" value="" style="endArrow=classic;html=1;rounded=0;exitX=1;exitY=0.5;exitDx=0;exitDy=0;entryX=0;entryY=0.5;entryDx=0;entryDy=0;" parent="1" source="3hz_wcmM0hAR168FM_uA-12" target="3hz_wcmM0hAR168FM_uA-6" edge="1">
          <mxGeometry width="50" height="50" relative="1" as="geometry">
            <mxPoint x="2240" y="-40" as="sourcePoint" />
            <mxPoint x="2290" y="-90" as="targetPoint" />
          </mxGeometry>
        </mxCell>
        <mxCell id="3hz_wcmM0hAR168FM_uA-27" value="" style="endArrow=classic;html=1;rounded=0;exitX=1;exitY=0.5;exitDx=0;exitDy=0;" parent="1" source="3hz_wcmM0hAR168FM_uA-12" edge="1">
          <mxGeometry width="50" height="50" relative="1" as="geometry">
            <mxPoint x="2240" y="-40" as="sourcePoint" />
            <mxPoint x="2350" y="220" as="targetPoint" />
          </mxGeometry>
        </mxCell>
        <mxCell id="3hz_wcmM0hAR168FM_uA-28" value="név" style="ellipse;whiteSpace=wrap;html=1;align=center;" parent="1" vertex="1">
          <mxGeometry x="340" y="-440" width="80" height="40" as="geometry" />
        </mxCell>
        <mxCell id="3hz_wcmM0hAR168FM_uA-29" value="telefonszám" style="ellipse;whiteSpace=wrap;html=1;align=center;" parent="1" vertex="1">
          <mxGeometry x="460" y="-440" width="80" height="40" as="geometry" />
        </mxCell>
        <mxCell id="3hz_wcmM0hAR168FM_uA-32" value="elérhető" style="ellipse;whiteSpace=wrap;html=1;align=center;" parent="1" vertex="1">
          <mxGeometry x="580" y="-440" width="80" height="40" as="geometry" />
        </mxCell>
        <mxCell id="3hz_wcmM0hAR168FM_uA-33" value="típus" style="ellipse;whiteSpace=wrap;html=1;align=center;" parent="1" vertex="1">
          <mxGeometry x="700" y="-440" width="80" height="40" as="geometry" />
        </mxCell>
        <mxCell id="3hz_wcmM0hAR168FM_uA-34" value="" style="endArrow=none;html=1;rounded=0;exitX=0.5;exitY=1;exitDx=0;exitDy=0;entryX=0.5;entryY=0;entryDx=0;entryDy=0;" parent="1" source="3hz_wcmM0hAR168FM_uA-28" target="3hz_wcmM0hAR168FM_uA-2" edge="1">
          <mxGeometry width="50" height="50" relative="1" as="geometry">
            <mxPoint x="50" y="320" as="sourcePoint" />
            <mxPoint x="100" y="270" as="targetPoint" />
          </mxGeometry>
        </mxCell>
        <mxCell id="3hz_wcmM0hAR168FM_uA-35" value="" style="endArrow=none;html=1;rounded=0;exitX=0.5;exitY=1;exitDx=0;exitDy=0;entryX=0.5;entryY=0;entryDx=0;entryDy=0;" parent="1" source="3hz_wcmM0hAR168FM_uA-29" target="3hz_wcmM0hAR168FM_uA-2" edge="1">
          <mxGeometry width="50" height="50" relative="1" as="geometry">
            <mxPoint x="50" y="320" as="sourcePoint" />
            <mxPoint x="100" y="270" as="targetPoint" />
          </mxGeometry>
        </mxCell>
        <mxCell id="3hz_wcmM0hAR168FM_uA-36" value="" style="endArrow=none;html=1;rounded=0;exitX=0.5;exitY=1;exitDx=0;exitDy=0;entryX=0.5;entryY=0;entryDx=0;entryDy=0;" parent="1" source="3hz_wcmM0hAR168FM_uA-32" target="3hz_wcmM0hAR168FM_uA-2" edge="1">
          <mxGeometry width="50" height="50" relative="1" as="geometry">
            <mxPoint x="50" y="320" as="sourcePoint" />
            <mxPoint x="100" y="270" as="targetPoint" />
          </mxGeometry>
        </mxCell>
        <mxCell id="3hz_wcmM0hAR168FM_uA-37" value="" style="endArrow=none;html=1;rounded=0;exitX=0.5;exitY=1;exitDx=0;exitDy=0;entryX=0.5;entryY=0;entryDx=0;entryDy=0;" parent="1" source="3hz_wcmM0hAR168FM_uA-33" target="3hz_wcmM0hAR168FM_uA-2" edge="1">
          <mxGeometry width="50" height="50" relative="1" as="geometry">
            <mxPoint x="50" y="320" as="sourcePoint" />
            <mxPoint x="100" y="270" as="targetPoint" />
          </mxGeometry>
        </mxCell>
        <mxCell id="3hz_wcmM0hAR168FM_uA-38" value="cím" style="ellipse;whiteSpace=wrap;html=1;align=center;" parent="1" vertex="1">
          <mxGeometry x="400" y="360" width="80" height="40" as="geometry" />
        </mxCell>
        <mxCell id="3hz_wcmM0hAR168FM_uA-39" value="elérhetőség" style="ellipse;whiteSpace=wrap;html=1;align=center;" parent="1" vertex="1">
          <mxGeometry x="640" y="360" width="80" height="40" as="geometry" />
        </mxCell>
        <mxCell id="3hz_wcmM0hAR168FM_uA-40" value="" style="endArrow=none;html=1;rounded=0;exitX=0.5;exitY=0;exitDx=0;exitDy=0;entryX=0.5;entryY=1;entryDx=0;entryDy=0;" parent="1" source="3hz_wcmM0hAR168FM_uA-38" target="3hz_wcmM0hAR168FM_uA-4" edge="1">
          <mxGeometry width="50" height="50" relative="1" as="geometry">
            <mxPoint x="440" y="320" as="sourcePoint" />
            <mxPoint x="490" y="270" as="targetPoint" />
          </mxGeometry>
        </mxCell>
        <mxCell id="3hz_wcmM0hAR168FM_uA-41" value="" style="endArrow=none;html=1;rounded=0;exitX=0.5;exitY=0;exitDx=0;exitDy=0;entryX=0.5;entryY=1;entryDx=0;entryDy=0;" parent="1" source="3hz_wcmM0hAR168FM_uA-39" target="3hz_wcmM0hAR168FM_uA-4" edge="1">
          <mxGeometry width="50" height="50" relative="1" as="geometry">
            <mxPoint x="440" y="320" as="sourcePoint" />
            <mxPoint x="490" y="270" as="targetPoint" />
          </mxGeometry>
        </mxCell>
        <mxCell id="3hz_wcmM0hAR168FM_uA-42" value="rendelés ideje" style="ellipse;whiteSpace=wrap;html=1;align=center;" parent="1" vertex="1">
          <mxGeometry x="1161" y="360" width="80" height="40" as="geometry" />
        </mxCell>
        <mxCell id="3hz_wcmM0hAR168FM_uA-43" value="megjegyzés" style="ellipse;whiteSpace=wrap;html=1;align=center;" parent="1" vertex="1">
          <mxGeometry x="1040" y="360" width="80" height="40" as="geometry" />
        </mxCell>
        <mxCell id="3hz_wcmM0hAR168FM_uA-44" value="mennyiség" style="ellipse;whiteSpace=wrap;html=1;align=center;" parent="1" vertex="1">
          <mxGeometry x="1320" width="80" height="40" as="geometry" />
        </mxCell>
        <mxCell id="3hz_wcmM0hAR168FM_uA-45" value="" style="endArrow=none;html=1;rounded=0;exitX=1;exitY=0.5;exitDx=0;exitDy=0;entryX=0;entryY=0.5;entryDx=0;entryDy=0;" parent="1" source="3hz_wcmM0hAR168FM_uA-10" target="3hz_wcmM0hAR168FM_uA-44" edge="1">
          <mxGeometry width="50" height="50" relative="1" as="geometry">
            <mxPoint x="1260" y="-40" as="sourcePoint" />
            <mxPoint x="1310" y="-90" as="targetPoint" />
          </mxGeometry>
        </mxCell>
        <mxCell id="3hz_wcmM0hAR168FM_uA-46" value="" style="endArrow=none;html=1;rounded=0;exitX=0.5;exitY=0;exitDx=0;exitDy=0;entryX=0.5;entryY=1;entryDx=0;entryDy=0;" parent="1" source="3hz_wcmM0hAR168FM_uA-42" target="3hz_wcmM0hAR168FM_uA-3" edge="1">
          <mxGeometry width="50" height="50" relative="1" as="geometry">
            <mxPoint x="1260" y="320" as="sourcePoint" />
            <mxPoint x="1310" y="270" as="targetPoint" />
          </mxGeometry>
        </mxCell>
        <mxCell id="3hz_wcmM0hAR168FM_uA-47" value="" style="endArrow=none;html=1;rounded=0;exitX=0.5;exitY=0;exitDx=0;exitDy=0;entryX=0.5;entryY=1;entryDx=0;entryDy=0;" parent="1" source="3hz_wcmM0hAR168FM_uA-43" target="3hz_wcmM0hAR168FM_uA-3" edge="1">
          <mxGeometry width="50" height="50" relative="1" as="geometry">
            <mxPoint x="1260" y="320" as="sourcePoint" />
            <mxPoint x="1310" y="270" as="targetPoint" />
          </mxGeometry>
        </mxCell>
        <mxCell id="3hz_wcmM0hAR168FM_uA-48" value="ár" style="ellipse;whiteSpace=wrap;html=1;align=center;" parent="1" vertex="1">
          <mxGeometry x="1100" y="-440" width="80" height="40" as="geometry" />
        </mxCell>
        <mxCell id="3hz_wcmM0hAR168FM_uA-49" value="név" style="ellipse;whiteSpace=wrap;html=1;align=center;" parent="1" vertex="1">
          <mxGeometry x="980" y="-440" width="80" height="40" as="geometry" />
        </mxCell>
        <mxCell id="3hz_wcmM0hAR168FM_uA-50" value="elkészítési idő" style="ellipse;whiteSpace=wrap;html=1;align=center;" parent="1" vertex="1">
          <mxGeometry x="1220" y="-440" width="80" height="40" as="geometry" />
        </mxCell>
        <mxCell id="3hz_wcmM0hAR168FM_uA-51" value="" style="endArrow=none;html=1;rounded=0;exitX=0.5;exitY=0;exitDx=0;exitDy=0;entryX=0.5;entryY=1;entryDx=0;entryDy=0;" parent="1" source="3hz_wcmM0hAR168FM_uA-7" target="3hz_wcmM0hAR168FM_uA-49" edge="1">
          <mxGeometry width="50" height="50" relative="1" as="geometry">
            <mxPoint x="1260" y="-40" as="sourcePoint" />
            <mxPoint x="1310" y="-90" as="targetPoint" />
          </mxGeometry>
        </mxCell>
        <mxCell id="3hz_wcmM0hAR168FM_uA-52" value="" style="endArrow=none;html=1;rounded=0;exitX=0.5;exitY=0;exitDx=0;exitDy=0;entryX=0.5;entryY=1;entryDx=0;entryDy=0;" parent="1" source="3hz_wcmM0hAR168FM_uA-7" target="3hz_wcmM0hAR168FM_uA-48" edge="1">
          <mxGeometry width="50" height="50" relative="1" as="geometry">
            <mxPoint x="1260" y="-40" as="sourcePoint" />
            <mxPoint x="1310" y="-90" as="targetPoint" />
          </mxGeometry>
        </mxCell>
        <mxCell id="3hz_wcmM0hAR168FM_uA-53" value="" style="endArrow=none;html=1;rounded=0;exitX=0.5;exitY=0;exitDx=0;exitDy=0;entryX=0.5;entryY=1;entryDx=0;entryDy=0;" parent="1" source="3hz_wcmM0hAR168FM_uA-7" target="3hz_wcmM0hAR168FM_uA-50" edge="1">
          <mxGeometry width="50" height="50" relative="1" as="geometry">
            <mxPoint x="1260" y="-40" as="sourcePoint" />
            <mxPoint x="1310" y="-90" as="targetPoint" />
          </mxGeometry>
        </mxCell>
        <mxCell id="3hz_wcmM0hAR168FM_uA-54" value="név" style="ellipse;whiteSpace=wrap;html=1;align=center;" parent="1" vertex="1">
          <mxGeometry x="1680" y="360" width="80" height="40" as="geometry" />
        </mxCell>
        <mxCell id="3hz_wcmM0hAR168FM_uA-55" value="telefonszám" style="ellipse;whiteSpace=wrap;html=1;align=center;" parent="1" vertex="1">
          <mxGeometry x="1920" y="360" width="80" height="40" as="geometry" />
        </mxCell>
        <mxCell id="3hz_wcmM0hAR168FM_uA-56" value="" style="endArrow=none;html=1;rounded=0;exitX=0.5;exitY=0;exitDx=0;exitDy=0;entryX=0.5;entryY=1;entryDx=0;entryDy=0;" parent="1" source="3hz_wcmM0hAR168FM_uA-54" target="3hz_wcmM0hAR168FM_uA-5" edge="1">
          <mxGeometry width="50" height="50" relative="1" as="geometry">
            <mxPoint x="1810" y="320" as="sourcePoint" />
            <mxPoint x="1860" y="270" as="targetPoint" />
          </mxGeometry>
        </mxCell>
        <mxCell id="3hz_wcmM0hAR168FM_uA-57" value="" style="endArrow=none;html=1;rounded=0;exitX=0.5;exitY=0;exitDx=0;exitDy=0;entryX=0.5;entryY=1;entryDx=0;entryDy=0;" parent="1" source="3hz_wcmM0hAR168FM_uA-55" target="3hz_wcmM0hAR168FM_uA-5" edge="1">
          <mxGeometry width="50" height="50" relative="1" as="geometry">
            <mxPoint x="1810" y="320" as="sourcePoint" />
            <mxPoint x="1860" y="270" as="targetPoint" />
          </mxGeometry>
        </mxCell>
        <mxCell id="3hz_wcmM0hAR168FM_uA-58" value="lejárati dátum" style="ellipse;whiteSpace=wrap;html=1;align=center;" parent="1" vertex="1">
          <mxGeometry x="2380" y="360" width="80" height="40" as="geometry" />
        </mxCell>
        <mxCell id="3hz_wcmM0hAR168FM_uA-59" value="kártyán szerplő név" style="ellipse;whiteSpace=wrap;html=1;align=center;" parent="1" vertex="1">
          <mxGeometry x="2260" y="360" width="80" height="40" as="geometry" />
        </mxCell>
        <mxCell id="3hz_wcmM0hAR168FM_uA-60" value="biztonsági kód" style="ellipse;whiteSpace=wrap;html=1;align=center;" parent="1" vertex="1">
          <mxGeometry x="2500" y="360" width="80" height="40" as="geometry" />
        </mxCell>
        <mxCell id="3hz_wcmM0hAR168FM_uA-61" value="típus" style="ellipse;whiteSpace=wrap;html=1;align=center;" parent="1" vertex="1">
          <mxGeometry x="2620" y="360" width="80" height="40" as="geometry" />
        </mxCell>
        <mxCell id="3hz_wcmM0hAR168FM_uA-62" value="" style="endArrow=none;html=1;rounded=0;exitX=0.5;exitY=0;exitDx=0;exitDy=0;entryX=0.5;entryY=1;entryDx=0;entryDy=0;" parent="1" source="3hz_wcmM0hAR168FM_uA-59" target="3hz_wcmM0hAR168FM_uA-6" edge="1">
          <mxGeometry width="50" height="50" relative="1" as="geometry">
            <mxPoint x="2310" y="320" as="sourcePoint" />
            <mxPoint x="2360" y="270" as="targetPoint" />
          </mxGeometry>
        </mxCell>
        <mxCell id="3hz_wcmM0hAR168FM_uA-63" value="" style="endArrow=none;html=1;rounded=0;exitX=0.5;exitY=0;exitDx=0;exitDy=0;entryX=0.5;entryY=1;entryDx=0;entryDy=0;" parent="1" source="3hz_wcmM0hAR168FM_uA-58" target="3hz_wcmM0hAR168FM_uA-6" edge="1">
          <mxGeometry width="50" height="50" relative="1" as="geometry">
            <mxPoint x="2310" y="320" as="sourcePoint" />
            <mxPoint x="2360" y="270" as="targetPoint" />
          </mxGeometry>
        </mxCell>
        <mxCell id="3hz_wcmM0hAR168FM_uA-64" value="" style="endArrow=none;html=1;rounded=0;exitX=0.5;exitY=0;exitDx=0;exitDy=0;entryX=0.5;entryY=1;entryDx=0;entryDy=0;" parent="1" source="3hz_wcmM0hAR168FM_uA-60" target="3hz_wcmM0hAR168FM_uA-6" edge="1">
          <mxGeometry width="50" height="50" relative="1" as="geometry">
            <mxPoint x="2310" y="320" as="sourcePoint" />
            <mxPoint x="2360" y="270" as="targetPoint" />
          </mxGeometry>
        </mxCell>
        <mxCell id="3hz_wcmM0hAR168FM_uA-65" value="" style="endArrow=none;html=1;rounded=0;exitX=0.5;exitY=0;exitDx=0;exitDy=0;entryX=0.5;entryY=1;entryDx=0;entryDy=0;" parent="1" source="3hz_wcmM0hAR168FM_uA-61" target="3hz_wcmM0hAR168FM_uA-6" edge="1">
          <mxGeometry width="50" height="50" relative="1" as="geometry">
            <mxPoint x="2310" y="320" as="sourcePoint" />
            <mxPoint x="2360" y="270" as="targetPoint" />
          </mxGeometry>
        </mxCell>
        <mxCell id="3hz_wcmM0hAR168FM_uA-66" value="kártyaszám" style="ellipse;whiteSpace=wrap;html=1;align=center;fontStyle=4;" parent="1" vertex="1">
          <mxGeometry x="2140" y="360" width="80" height="40" as="geometry" />
        </mxCell>
        <mxCell id="3hz_wcmM0hAR168FM_uA-67" value="" style="endArrow=none;html=1;rounded=0;exitX=0.5;exitY=0;exitDx=0;exitDy=0;entryX=0.5;entryY=1;entryDx=0;entryDy=0;" parent="1" source="3hz_wcmM0hAR168FM_uA-66" target="3hz_wcmM0hAR168FM_uA-6" edge="1">
          <mxGeometry width="50" height="50" relative="1" as="geometry">
            <mxPoint x="2310" y="320" as="sourcePoint" />
            <mxPoint x="2360" y="270" as="targetPoint" />
          </mxGeometry>
        </mxCell>
        <mxCell id="3hz_wcmM0hAR168FM_uA-68" value="vevőID" style="ellipse;whiteSpace=wrap;html=1;align=center;fontStyle=4;" parent="1" vertex="1">
          <mxGeometry x="1560" y="360" width="80" height="40" as="geometry" />
        </mxCell>
        <mxCell id="3hz_wcmM0hAR168FM_uA-69" value="" style="endArrow=none;html=1;rounded=0;exitX=0.5;exitY=0;exitDx=0;exitDy=0;entryX=0.5;entryY=1;entryDx=0;entryDy=0;" parent="1" source="3hz_wcmM0hAR168FM_uA-68" target="3hz_wcmM0hAR168FM_uA-5" edge="1">
          <mxGeometry width="50" height="50" relative="1" as="geometry">
            <mxPoint x="1530" y="320" as="sourcePoint" />
            <mxPoint x="1580" y="270" as="targetPoint" />
          </mxGeometry>
        </mxCell>
        <mxCell id="3hz_wcmM0hAR168FM_uA-70" value="rendelésID" style="ellipse;whiteSpace=wrap;html=1;align=center;fontStyle=4;" parent="1" vertex="1">
          <mxGeometry x="920" y="360" width="80" height="40" as="geometry" />
        </mxCell>
        <mxCell id="3hz_wcmM0hAR168FM_uA-71" value="" style="endArrow=none;html=1;rounded=0;exitX=0.5;exitY=0;exitDx=0;exitDy=0;entryX=0.5;entryY=1;entryDx=0;entryDy=0;" parent="1" source="3hz_wcmM0hAR168FM_uA-70" target="3hz_wcmM0hAR168FM_uA-3" edge="1">
          <mxGeometry width="50" height="50" relative="1" as="geometry">
            <mxPoint x="1530" y="320" as="sourcePoint" />
            <mxPoint x="1580" y="270" as="targetPoint" />
          </mxGeometry>
        </mxCell>
        <mxCell id="3hz_wcmM0hAR168FM_uA-72" value="termékID" style="ellipse;whiteSpace=wrap;html=1;align=center;fontStyle=4;" parent="1" vertex="1">
          <mxGeometry x="860" y="-440" width="80" height="40" as="geometry" />
        </mxCell>
        <mxCell id="3hz_wcmM0hAR168FM_uA-73" value="" style="endArrow=none;html=1;rounded=0;exitX=0.5;exitY=0;exitDx=0;exitDy=0;entryX=0.5;entryY=1;entryDx=0;entryDy=0;" parent="1" source="3hz_wcmM0hAR168FM_uA-7" target="3hz_wcmM0hAR168FM_uA-72" edge="1">
          <mxGeometry width="50" height="50" relative="1" as="geometry">
            <mxPoint x="1530" y="-240" as="sourcePoint" />
            <mxPoint x="1580" y="-290" as="targetPoint" />
          </mxGeometry>
        </mxCell>
        <mxCell id="3hz_wcmM0hAR168FM_uA-74" value="étteremID" style="ellipse;whiteSpace=wrap;html=1;align=center;fontStyle=4;" parent="1" vertex="1">
          <mxGeometry x="280" y="360" width="80" height="40" as="geometry" />
        </mxCell>
        <mxCell id="3hz_wcmM0hAR168FM_uA-75" value="" style="endArrow=none;html=1;rounded=0;exitX=0.5;exitY=0;exitDx=0;exitDy=0;entryX=0.5;entryY=1;entryDx=0;entryDy=0;" parent="1" source="3hz_wcmM0hAR168FM_uA-74" target="3hz_wcmM0hAR168FM_uA-4" edge="1">
          <mxGeometry width="50" height="50" relative="1" as="geometry">
            <mxPoint x="440" y="240" as="sourcePoint" />
            <mxPoint x="490" y="190" as="targetPoint" />
          </mxGeometry>
        </mxCell>
        <mxCell id="3hz_wcmM0hAR168FM_uA-76" value="futárID" style="ellipse;whiteSpace=wrap;html=1;align=center;fontStyle=4;" parent="1" vertex="1">
          <mxGeometry x="220" y="-440" width="80" height="40" as="geometry" />
        </mxCell>
        <mxCell id="3hz_wcmM0hAR168FM_uA-77" value="nyitvatartás" style="ellipse;shape=doubleEllipse;margin=3;whiteSpace=wrap;html=1;align=center;" parent="1" vertex="1">
          <mxGeometry x="520" y="360" width="80" height="40" as="geometry" />
        </mxCell>
        <mxCell id="3hz_wcmM0hAR168FM_uA-78" value="" style="endArrow=none;html=1;rounded=0;exitX=0.5;exitY=0;exitDx=0;exitDy=0;entryX=0.5;entryY=1;entryDx=0;entryDy=0;" parent="1" source="3hz_wcmM0hAR168FM_uA-77" target="3hz_wcmM0hAR168FM_uA-4" edge="1">
          <mxGeometry width="50" height="50" relative="1" as="geometry">
            <mxPoint x="570" y="240" as="sourcePoint" />
            <mxPoint x="620" y="190" as="targetPoint" />
          </mxGeometry>
        </mxCell>
        <mxCell id="3hz_wcmM0hAR168FM_uA-79" value="teljes ár" style="ellipse;whiteSpace=wrap;html=1;align=center;dashed=1;" parent="1" vertex="1">
          <mxGeometry x="1280" y="360" width="80" height="40" as="geometry" />
        </mxCell>
        <mxCell id="3hz_wcmM0hAR168FM_uA-80" value="" style="endArrow=none;html=1;rounded=0;exitX=0.5;exitY=0;exitDx=0;exitDy=0;entryX=0.5;entryY=1;entryDx=0;entryDy=0;" parent="1" source="3hz_wcmM0hAR168FM_uA-79" target="3hz_wcmM0hAR168FM_uA-3" edge="1">
          <mxGeometry width="50" height="50" relative="1" as="geometry">
            <mxPoint x="1480" y="240" as="sourcePoint" />
            <mxPoint x="1530" y="190" as="targetPoint" />
          </mxGeometry>
        </mxCell>
        <mxCell id="3hz_wcmM0hAR168FM_uA-81" value="összetevők" style="ellipse;shape=doubleEllipse;margin=3;whiteSpace=wrap;html=1;align=center;" parent="1" vertex="1">
          <mxGeometry x="1340" y="-440" width="80" height="40" as="geometry" />
        </mxCell>
        <mxCell id="3hz_wcmM0hAR168FM_uA-82" value="" style="endArrow=none;html=1;rounded=0;exitX=0.5;exitY=0;exitDx=0;exitDy=0;entryX=0.5;entryY=1;entryDx=0;entryDy=0;" parent="1" source="3hz_wcmM0hAR168FM_uA-7" target="3hz_wcmM0hAR168FM_uA-81" edge="1">
          <mxGeometry width="50" height="50" relative="1" as="geometry">
            <mxPoint x="1480" y="-360" as="sourcePoint" />
            <mxPoint x="1530" y="-410" as="targetPoint" />
          </mxGeometry>
        </mxCell>
        <mxCell id="3hz_wcmM0hAR168FM_uA-83" value="( cím )" style="ellipse;whiteSpace=wrap;html=1;align=center;" parent="1" vertex="1">
          <mxGeometry x="1800" y="360" width="80" height="40" as="geometry" />
        </mxCell>
        <mxCell id="3hz_wcmM0hAR168FM_uA-84" value="" style="endArrow=none;html=1;rounded=0;exitX=0.5;exitY=0;exitDx=0;exitDy=0;entryX=0.5;entryY=1;entryDx=0;entryDy=0;" parent="1" source="3hz_wcmM0hAR168FM_uA-83" target="3hz_wcmM0hAR168FM_uA-5" edge="1">
          <mxGeometry width="50" height="50" relative="1" as="geometry">
            <mxPoint x="1810" y="240" as="sourcePoint" />
            <mxPoint x="1860" y="190" as="targetPoint" />
          </mxGeometry>
        </mxCell>
        <mxCell id="3hz_wcmM0hAR168FM_uA-85" value="&lt;font style=&quot;font-size: 11px;&quot;&gt;közterület megnevezése&lt;/font&gt;" style="ellipse;whiteSpace=wrap;html=1;align=center;" parent="1" vertex="1">
          <mxGeometry x="1800" y="520" width="80" height="40" as="geometry" />
        </mxCell>
        <mxCell id="3hz_wcmM0hAR168FM_uA-86" value="közterület neve" style="ellipse;whiteSpace=wrap;html=1;align=center;" parent="1" vertex="1">
          <mxGeometry x="1680" y="520" width="80" height="40" as="geometry" />
        </mxCell>
        <mxCell id="3hz_wcmM0hAR168FM_uA-87" value="irányítószám" style="ellipse;whiteSpace=wrap;html=1;align=center;" parent="1" vertex="1">
          <mxGeometry x="1560" y="520" width="80" height="40" as="geometry" />
        </mxCell>
        <mxCell id="3hz_wcmM0hAR168FM_uA-88" value="házszám" style="ellipse;whiteSpace=wrap;html=1;align=center;" parent="1" vertex="1">
          <mxGeometry x="1920" y="520" width="80" height="40" as="geometry" />
        </mxCell>
        <mxCell id="3hz_wcmM0hAR168FM_uA-89" value="emelet/ajtó" style="ellipse;whiteSpace=wrap;html=1;align=center;" parent="1" vertex="1">
          <mxGeometry x="2040" y="520" width="80" height="40" as="geometry" />
        </mxCell>
        <mxCell id="3hz_wcmM0hAR168FM_uA-90" value="" style="endArrow=none;html=1;rounded=0;exitX=0.5;exitY=0;exitDx=0;exitDy=0;entryX=0.5;entryY=1;entryDx=0;entryDy=0;" parent="1" source="3hz_wcmM0hAR168FM_uA-87" target="3hz_wcmM0hAR168FM_uA-83" edge="1">
          <mxGeometry width="50" height="50" relative="1" as="geometry">
            <mxPoint x="1810" y="240" as="sourcePoint" />
            <mxPoint x="1860" y="190" as="targetPoint" />
          </mxGeometry>
        </mxCell>
        <mxCell id="3hz_wcmM0hAR168FM_uA-91" value="" style="endArrow=none;html=1;rounded=0;exitX=0.5;exitY=0;exitDx=0;exitDy=0;entryX=0.5;entryY=1;entryDx=0;entryDy=0;" parent="1" source="3hz_wcmM0hAR168FM_uA-86" target="3hz_wcmM0hAR168FM_uA-83" edge="1">
          <mxGeometry width="50" height="50" relative="1" as="geometry">
            <mxPoint x="1810" y="240" as="sourcePoint" />
            <mxPoint x="1860" y="190" as="targetPoint" />
          </mxGeometry>
        </mxCell>
        <mxCell id="3hz_wcmM0hAR168FM_uA-92" value="" style="endArrow=none;html=1;rounded=0;exitX=0.5;exitY=0;exitDx=0;exitDy=0;" parent="1" source="3hz_wcmM0hAR168FM_uA-85" edge="1">
          <mxGeometry width="50" height="50" relative="1" as="geometry">
            <mxPoint x="1810" y="240" as="sourcePoint" />
            <mxPoint x="1840" y="400" as="targetPoint" />
          </mxGeometry>
        </mxCell>
        <mxCell id="3hz_wcmM0hAR168FM_uA-93" value="" style="endArrow=none;html=1;rounded=0;exitX=0.5;exitY=0;exitDx=0;exitDy=0;entryX=0.5;entryY=1;entryDx=0;entryDy=0;" parent="1" source="3hz_wcmM0hAR168FM_uA-88" target="3hz_wcmM0hAR168FM_uA-83" edge="1">
          <mxGeometry width="50" height="50" relative="1" as="geometry">
            <mxPoint x="1810" y="240" as="sourcePoint" />
            <mxPoint x="1860" y="190" as="targetPoint" />
          </mxGeometry>
        </mxCell>
        <mxCell id="3hz_wcmM0hAR168FM_uA-94" value="" style="endArrow=none;html=1;rounded=0;exitX=0.5;exitY=0;exitDx=0;exitDy=0;entryX=0.5;entryY=1;entryDx=0;entryDy=0;" parent="1" source="3hz_wcmM0hAR168FM_uA-89" target="3hz_wcmM0hAR168FM_uA-83" edge="1">
          <mxGeometry width="50" height="50" relative="1" as="geometry">
            <mxPoint x="1810" y="240" as="sourcePoint" />
            <mxPoint x="1860" y="190" as="targetPoint" />
          </mxGeometry>
        </mxCell>
        <mxCell id="3hz_wcmM0hAR168FM_uA-95" value="" style="endArrow=none;html=1;rounded=0;exitX=0.5;exitY=1;exitDx=0;exitDy=0;entryX=0.5;entryY=0;entryDx=0;entryDy=0;" parent="1" source="3hz_wcmM0hAR168FM_uA-76" target="3hz_wcmM0hAR168FM_uA-2" edge="1">
          <mxGeometry width="50" height="50" relative="1" as="geometry">
            <mxPoint x="100" y="240" as="sourcePoint" />
            <mxPoint x="150" y="190" as="targetPoint" />
          </mxGeometry>
        </mxCell>
        <mxCell id="V6vF--Py-K4m5wVeLNOH-3" value="" style="endArrow=none;html=1;rounded=0;exitX=1;exitY=0.5;exitDx=0;exitDy=0;entryX=0;entryY=0.5;entryDx=0;entryDy=0;" parent="1" source="3hz_wcmM0hAR168FM_uA-10" target="pZTNoZ_3m58tIJ6Utsh1-1" edge="1">
          <mxGeometry width="50" height="50" relative="1" as="geometry">
            <mxPoint x="1350" y="-140" as="sourcePoint" />
            <mxPoint x="1320" y="-60" as="targetPoint" />
          </mxGeometry>
        </mxCell>
        <mxCell id="pZTNoZ_3m58tIJ6Utsh1-1" value="nk_alapanyag" style="ellipse;shape=doubleEllipse;margin=3;whiteSpace=wrap;html=1;align=center;" parent="1" vertex="1">
          <mxGeometry x="1320" y="-80" width="80" height="40" as="geometry" />
        </mxCell>
      </root>
    </mxGraphModel>
  </diagram>
</mxfile>
